<svg width="36" height="28" viewBox="0 0 36 28" fill="none" xmlns="http://www.w3.org/2000/svg">
<path d="M30.4762 2.73796C28.1812 1.70296 25.7212 0.93796 23.1487 0.50296C23.1258 0.498562 23.1021 0.501397 23.0809 0.511071C23.0596 0.520746 23.0419 0.536783 23.0302 0.55696C22.7152 1.11046 22.3642 1.83196 22.1182 2.40196C19.3899 1.99432 16.6161 1.99432 13.8877 2.40196C13.6137 1.77025 13.3047 1.1543 12.9622 0.55696C12.9506 0.536534 12.933 0.520135 12.9119 0.509951C12.8907 0.499766 12.8669 0.496281 12.8437 0.49996C10.2727 0.93496 7.81272 1.69996 5.51622 2.73646C5.49646 2.74475 5.47971 2.75888 5.46822 2.77696C0.800221 9.63946 -0.479279 16.3325 0.149221 22.9415C0.15097 22.9576 0.155994 22.9733 0.163988 22.9875C0.171982 23.0017 0.182779 23.0141 0.195721 23.024C2.92031 25.0076 5.95923 26.5187 9.18522 27.494C9.20771 27.5009 9.23176 27.5009 9.25424 27.4939C9.27672 27.4869 9.29658 27.4734 9.31122 27.455C10.0042 26.525 10.6222 25.5425 11.1502 24.5105C11.1817 24.4505 11.1517 24.3785 11.0887 24.3545C10.1197 23.9895 9.18085 23.5492 8.28072 23.0375C8.26455 23.0282 8.25092 23.0151 8.24106 22.9993C8.2312 22.9835 8.22541 22.9655 8.22422 22.9469C8.22303 22.9284 8.22647 22.9098 8.23424 22.8928C8.24201 22.8759 8.25386 22.8612 8.26872 22.85C8.45772 22.7105 8.64672 22.565 8.82672 22.4195C8.84292 22.4064 8.86244 22.398 8.8831 22.3954C8.90375 22.3927 8.92474 22.3959 8.94372 22.4045C14.8342 25.0505 21.2137 25.0505 27.0352 22.4045C27.0543 22.3954 27.0755 22.3918 27.0964 22.3942C27.1174 22.3966 27.1372 22.4048 27.1537 22.418C27.3337 22.565 27.5212 22.7105 27.7117 22.85C27.7267 22.8609 27.7388 22.8755 27.7468 22.8923C27.7548 22.909 27.7585 22.9276 27.7576 22.9461C27.7567 22.9647 27.7513 22.9828 27.7417 22.9987C27.7321 23.0146 27.7187 23.028 27.7027 23.0375C26.8057 23.5535 25.8727 23.99 24.8932 24.353C24.8782 24.3584 24.8645 24.367 24.853 24.3782C24.8416 24.3894 24.8326 24.4029 24.8268 24.4178C24.821 24.4327 24.8184 24.4487 24.8193 24.4647C24.8201 24.4806 24.8244 24.4962 24.8317 24.5105C25.3717 25.541 25.9897 26.522 26.6692 27.4535C26.6833 27.4726 26.703 27.4869 26.7256 27.4944C26.7481 27.5019 26.7725 27.5023 26.7952 27.4955C30.0267 26.5229 33.0706 25.0111 35.7982 23.024C35.8115 23.0147 35.8227 23.0026 35.831 22.9886C35.8393 22.9747 35.8444 22.9591 35.8462 22.943C36.5962 15.302 34.5892 8.66296 30.5227 2.77996C30.5128 2.76084 30.4963 2.74594 30.4762 2.73796ZM12.0307 18.917C10.2577 18.917 8.79522 17.3135 8.79522 15.347C8.79522 13.379 10.2292 11.777 12.0307 11.777C13.8457 11.777 15.2947 13.3925 15.2662 15.347C15.2662 17.315 13.8322 18.917 12.0307 18.917ZM23.9932 18.917C22.2187 18.917 20.7577 17.3135 20.7577 15.347C20.7577 13.379 22.1902 11.777 23.9932 11.777C25.8082 11.777 27.2572 13.3925 27.2287 15.347C27.2287 17.315 25.8097 18.917 23.9932 18.917Z" fill="white"/>
</svg>
