<svg width="72" height="56" viewBox="0 0 72 56" fill="none" xmlns="http://www.w3.org/2000/svg">
<g clip-path="url(#clip0_4_20)">
<path d="M60.9524 5.47592C56.3624 3.40592 51.4424 1.87592 46.2974 1.00592C46.2516 0.997124 46.2042 1.00279 46.1618 1.02214C46.1192 1.04149 46.0838 1.07357 46.0604 1.11392C45.4304 2.22092 44.7284 3.66392 44.2364 4.80392C38.7798 3.98864 33.2322 3.98864 27.7754 4.80392C27.2274 3.5405 26.6094 2.3086 25.9244 1.11392C25.9012 1.07307 25.866 1.04027 25.8238 1.0199C25.7814 0.999532 25.7338 0.992562 25.6874 0.99992C20.5454 1.86992 15.6254 3.39992 11.0324 5.47292C10.9929 5.4895 10.9594 5.51776 10.9364 5.55392C1.60044 19.2789 -0.958558 32.665 0.298442 45.883C0.30194 45.9152 0.311988 45.9466 0.327976 45.975C0.343964 46.0034 0.365558 46.0282 0.391442 46.048C5.84062 50.0152 11.9185 53.0374 18.3704 54.988C18.4154 55.0018 18.4635 55.0018 18.5085 54.9878C18.5534 54.9738 18.5932 54.9468 18.6224 54.91C20.0084 53.05 21.2444 51.085 22.3004 49.021C22.3634 48.901 22.3034 48.757 22.1774 48.709C20.2394 47.979 18.3617 47.0984 16.5614 46.075C16.5291 46.0564 16.5018 46.0302 16.4821 45.9986C16.4624 45.967 16.4508 45.931 16.4484 45.8938C16.4461 45.8568 16.4529 45.8196 16.4685 45.7856C16.484 45.7518 16.5077 45.7224 16.5374 45.7C16.9154 45.421 17.2934 45.13 17.6534 44.839C17.6858 44.8128 17.7249 44.796 17.7662 44.7908C17.8075 44.7854 17.8495 44.7918 17.8874 44.809C29.6684 50.101 42.4274 50.101 54.0704 44.809C54.1086 44.7908 54.151 44.7836 54.1928 44.7884C54.2348 44.7932 54.2744 44.8096 54.3074 44.836C54.6674 45.13 55.0424 45.421 55.4234 45.7C55.4534 45.7218 55.4776 45.751 55.4936 45.7846C55.5096 45.818 55.517 45.8552 55.5152 45.8922C55.5134 45.9294 55.5026 45.9656 55.4834 45.9974C55.4642 46.0292 55.4374 46.056 55.4054 46.075C53.6114 47.107 51.7454 47.98 49.7864 48.706C49.7564 48.7168 49.729 48.734 49.706 48.7564C49.6832 48.7788 49.6652 48.8058 49.6536 48.8356C49.642 48.8654 49.6368 48.8974 49.6386 48.9294C49.6402 48.9612 49.6488 48.9924 49.6634 49.021C50.7434 51.082 51.9794 53.044 53.3384 54.907C53.3666 54.9452 53.406 54.9738 53.4512 54.9888C53.4962 55.0038 53.545 55.0046 53.5904 54.991C60.0534 53.0458 66.1412 50.0222 71.5964 46.048C71.623 46.0294 71.6454 46.0052 71.662 45.9772C71.6786 45.9494 71.6888 45.9182 71.6924 45.886C73.1924 30.604 69.1784 17.3259 61.0454 5.55992C61.0256 5.52168 60.9926 5.49188 60.9524 5.47592ZM24.0614 37.834C20.5154 37.834 17.5904 34.627 17.5904 30.694C17.5904 26.758 20.4584 23.554 24.0614 23.554C27.6914 23.554 30.5894 26.785 30.5324 30.694C30.5324 34.63 27.6644 37.834 24.0614 37.834ZM47.9864 37.834C44.4374 37.834 41.5154 34.627 41.5154 30.694C41.5154 26.758 44.3804 23.554 47.9864 23.554C51.6164 23.554 54.5144 26.785 54.4574 30.694C54.4574 34.63 51.6194 37.834 47.9864 37.834Z" fill="white"/>
</g>
<defs>
<clipPath id="clip0_4_20">
<rect width="72" height="56" fill="white"/>
</clipPath>
</defs>
</svg>
