<svg width="28" height="28" viewBox="0 0 28 28" fill="none" xmlns="http://www.w3.org/2000/svg">
<path d="M27.4211 8.45768C27.406 7.32161 27.1933 6.19684 26.7926 5.13368C26.4451 4.23691 25.9144 3.42248 25.2343 2.74243C24.5543 2.06237 23.7399 1.53166 22.8431 1.18418C21.7936 0.790215 20.6849 0.577192 19.5641 0.55418C18.1211 0.48968 17.6636 0.47168 14.0006 0.47168C10.3376 0.47168 9.86809 0.47168 8.43559 0.55418C7.31533 0.577361 6.20712 0.790382 5.15809 1.18418C4.26118 1.53141 3.44663 2.06205 2.76654 2.74213C2.08646 3.42221 1.55583 4.23677 1.20859 5.13368C0.81384 6.18238 0.601278 7.29084 0.580094 8.41118C0.515594 9.85568 0.496094 10.3132 0.496094 13.9762C0.496094 17.6392 0.496094 18.1072 0.580094 19.5412C0.602594 20.6632 0.814094 21.7702 1.20859 22.8217C1.55641 23.7183 2.08744 24.5325 2.76775 25.2123C3.44806 25.8921 4.26269 26.4225 5.15959 26.7697C6.20574 27.1795 7.31415 27.4077 8.43709 27.4447C9.88159 27.5092 10.3391 27.5287 14.0021 27.5287C17.6651 27.5287 18.1346 27.5287 19.5671 27.4447C20.6878 27.4226 21.7966 27.2101 22.8461 26.8162C23.7426 26.4683 24.5569 25.9374 25.2369 25.2574C25.9169 24.5774 26.4477 23.7632 26.7956 22.8667C27.1901 21.8167 27.4016 20.7097 27.4241 19.5862C27.4886 18.1432 27.5081 17.6857 27.5081 14.0212C27.5051 10.3582 27.5051 9.89318 27.4211 8.45768ZM13.9916 20.9032C10.1606 20.9032 7.05709 17.7997 7.05709 13.9687C7.05709 10.1377 10.1606 7.03418 13.9916 7.03418C15.8307 7.03418 17.5946 7.76478 18.895 9.06525C20.1955 10.3657 20.9261 12.1295 20.9261 13.9687C20.9261 15.8078 20.1955 17.5716 18.895 18.8721C17.5946 20.1726 15.8307 20.9032 13.9916 20.9032ZM21.2021 8.39468C20.9897 8.39488 20.7793 8.35319 20.5831 8.272C20.3868 8.1908 20.2085 8.0717 20.0583 7.92151C19.9081 7.77132 19.789 7.59298 19.7078 7.39671C19.6266 7.20044 19.5849 6.99008 19.5851 6.77768C19.5851 6.56543 19.6269 6.35526 19.7081 6.15917C19.7893 5.96308 19.9084 5.7849 20.0585 5.63482C20.2086 5.48474 20.3867 5.36568 20.5828 5.28446C20.7789 5.20324 20.9891 5.16143 21.2013 5.16143C21.4136 5.16143 21.6238 5.20324 21.8199 5.28446C22.0159 5.36568 22.1941 5.48474 22.3442 5.63482C22.4943 5.7849 22.6133 5.96308 22.6946 6.15917C22.7758 6.35526 22.8176 6.56543 22.8176 6.77768C22.8176 7.67168 22.0946 8.39468 21.2021 8.39468Z" fill="white"/>
<path d="M13.9908 18.4729C16.4786 18.4729 18.4953 16.4561 18.4953 13.9684C18.4953 11.4806 16.4786 9.46387 13.9908 9.46387C11.5031 9.46387 9.48633 11.4806 9.48633 13.9684C9.48633 16.4561 11.5031 18.4729 13.9908 18.4729Z" fill="white"/>
</svg>
