<svg width="56" height="56" viewBox="0 0 56 56" fill="none" xmlns="http://www.w3.org/2000/svg">
<path d="M54.8422 16.9154C54.812 14.6432 54.3866 12.3937 53.5852 10.2674C52.8902 8.47382 51.8288 6.84496 50.4686 5.48486C49.1086 4.12474 47.4798 3.06332 45.6862 2.36836C43.5872 1.58043 41.3698 1.15438 39.1282 1.10836C36.2422 0.979359 35.3272 0.943359 28.0012 0.943359C20.6752 0.943359 19.7362 0.943359 16.8712 1.10836C14.6307 1.15472 12.4142 1.58076 10.3162 2.36836C8.52236 3.06282 6.89326 4.1241 5.53308 5.48426C4.17292 6.84442 3.11166 8.47354 2.41718 10.2674C1.62768 12.3648 1.20256 14.5817 1.16019 16.8224C1.03119 19.7114 0.992188 20.6264 0.992188 27.9524C0.992188 35.2784 0.992187 36.2144 1.16019 39.0824C1.20519 41.3264 1.62819 43.5404 2.41718 45.6434C3.11282 47.4366 4.17488 49.065 5.5355 50.4246C6.89612 51.7842 8.52538 52.845 10.3192 53.5394C12.4115 54.359 14.6283 54.8154 16.8742 54.8894C19.7632 55.0184 20.6782 55.0574 28.0042 55.0574C35.3302 55.0574 36.2692 55.0574 39.1342 54.8894C41.3756 54.8452 43.5932 54.4202 45.6922 53.6324C47.4852 52.9366 49.1138 51.8748 50.4738 50.5148C51.8338 49.1548 52.8954 47.5264 53.5912 45.7334C54.3802 43.6334 54.8032 41.4194 54.8482 39.1724C54.9772 36.2864 55.0162 35.3714 55.0162 28.0424C55.0102 20.7164 55.0102 19.7864 54.8422 16.9154ZM27.9832 41.8064C20.3212 41.8064 14.1142 35.5994 14.1142 27.9374C14.1142 20.2754 20.3212 14.0684 27.9832 14.0684C31.6614 14.0684 35.1892 15.5296 37.79 18.1305C40.391 20.7314 41.8522 24.259 41.8522 27.9374C41.8522 31.6156 40.391 35.1432 37.79 37.7442C35.1892 40.3452 31.6614 41.8064 27.9832 41.8064ZM42.4042 16.7894C41.9794 16.7898 41.5586 16.7064 41.1662 16.544C40.7736 16.3816 40.417 16.1434 40.1166 15.843C39.8162 15.5426 39.578 15.186 39.4156 14.7934C39.2532 14.4009 39.1698 13.9802 39.1702 13.5554C39.1702 13.1309 39.2538 12.7105 39.4162 12.3183C39.5786 11.9262 39.8168 11.5698 40.117 11.2696C40.4172 10.9695 40.7734 10.7314 41.1656 10.5689C41.5578 10.4065 41.9782 10.3229 42.4026 10.3229C42.8272 10.3229 43.2476 10.4065 43.6398 10.5689C44.0318 10.7314 44.3882 10.9695 44.6884 11.2696C44.9886 11.5698 45.2266 11.9262 45.3892 12.3183C45.5516 12.7105 45.6352 13.1309 45.6352 13.5554C45.6352 15.3434 44.1892 16.7894 42.4042 16.7894Z" fill="white"/>
<path d="M27.9816 36.9458C32.9572 36.9458 36.9906 32.9122 36.9906 27.9368C36.9906 22.9612 32.9572 18.9277 27.9816 18.9277C23.0062 18.9277 18.9727 22.9612 18.9727 27.9368C18.9727 32.9122 23.0062 36.9458 27.9816 36.9458Z" fill="white"/>
</svg>
