<svg width="30" height="24" viewBox="0 0 30 24" fill="none" xmlns="http://www.w3.org/2000/svg">
<path d="M3.558 4.896C3.57638 4.7134 3.55176 4.52903 3.48613 4.35764C3.42049 4.18626 3.31565 4.03261 3.18 3.909L0.378 0.5085V0H9.075L15.798 14.8575L21.708 0H30V0.5085L27.6045 2.82C27.503 2.89837 27.4247 3.00284 27.3779 3.12225C27.3312 3.24167 27.3177 3.37154 27.339 3.498V20.499C27.3177 20.6255 27.3312 20.7553 27.3779 20.8747C27.4247 20.9942 27.503 21.0986 27.6045 21.177L29.9445 23.49V24H18.1785V23.4915L20.6025 21.1215C20.841 20.8815 20.841 20.811 20.841 20.445V6.702L14.103 23.943H13.194L5.349 6.702V18.258C5.2845 18.7425 5.445 19.233 5.784 19.584L8.9355 23.436V23.943H0V23.436L3.15 19.584C3.31667 19.4101 3.44036 19.1996 3.5112 18.9694C3.58205 18.7391 3.59807 18.4955 3.558 18.258V4.896Z" fill="white"/>
</svg>
