<svg width="60" height="48" viewBox="0 0 60 48" fill="none" xmlns="http://www.w3.org/2000/svg">
<path d="M7.116 9.792C7.15276 9.4268 7.10352 9.05806 6.97226 8.71528C6.84098 8.37252 6.6313 8.06522 6.36 7.818L0.756 1.017V0H18.15L31.596 29.715L43.416 0H60V1.017L55.209 5.64C55.006 5.79674 54.8494 6.00568 54.7558 6.2445C54.6624 6.48334 54.6354 6.74308 54.678 6.996V40.998C54.6354 41.251 54.6624 41.5106 54.7558 41.7494C54.8494 41.9884 55.006 42.1972 55.209 42.354L59.889 46.98V48H36.357V46.983L41.205 42.243C41.682 41.763 41.682 41.622 41.682 40.89V13.404L28.206 47.886H26.388L10.698 13.404V36.516C10.569 37.485 10.89 38.466 11.568 39.168L17.871 46.872V47.886H0V46.872L6.3 39.168C6.63334 38.8202 6.88072 38.3992 7.0224 37.9388C7.1641 37.4782 7.19614 36.991 7.116 36.516V9.792Z" fill="white"/>
</svg>
