<svg width="70" height="56" viewBox="0 0 70 56" fill="none" xmlns="http://www.w3.org/2000/svg">
<path d="M68.9286 6.81074C66.4236 7.92074 63.7326 8.67074 60.9036 9.00974C63.8226 7.26312 66.0064 4.51414 67.0476 1.27574C64.305 2.90472 61.3036 4.05132 58.1736 4.66574C56.0686 2.41834 53.2808 0.928722 50.2426 0.428164C47.2044 -0.0723916 44.0858 0.444118 41.3712 1.8975C38.6566 3.35088 36.4978 5.65982 35.23 8.46586C33.9622 11.2719 33.6562 14.418 34.3596 17.4157C28.8026 17.1367 23.3664 15.6924 18.4038 13.1765C13.4412 10.6605 9.06308 7.12922 5.55354 2.81174C4.35354 4.88174 3.66354 7.28174 3.66354 9.83774C3.6622 12.1387 4.22884 14.4045 5.31318 16.4339C6.39752 18.4634 7.96604 20.1938 9.87954 21.4718C7.66038 21.4012 5.49016 20.8014 3.54954 19.7227V19.9027C3.54932 23.13 4.66564 26.2578 6.7091 28.7558C8.75254 31.2536 11.5973 32.9676 14.7605 33.6068C12.7019 34.1638 10.5436 34.246 8.44854 33.8468C9.34104 36.6236 11.0795 39.0518 13.4206 40.7916C15.7618 42.5312 18.5883 43.4952 21.5046 43.5488C16.554 47.435 10.4402 49.543 4.14654 49.5338C3.03168 49.534 1.91778 49.469 0.810547 49.3388C7.19898 53.4462 14.6356 55.6262 22.2306 55.6178C47.9406 55.6178 61.9956 34.3238 61.9956 15.8557C61.9956 15.2557 61.9806 14.6497 61.9536 14.0497C64.6874 12.0727 67.0472 9.62442 68.9226 6.81974L68.9286 6.81074Z" fill="white"/>
</svg>
