<svg width="35" height="28" viewBox="0 0 35 28" fill="none" xmlns="http://www.w3.org/2000/svg">
<path d="M34.4643 3.40537C33.2118 3.96037 31.8663 4.33537 30.4518 4.50487C31.9113 3.63156 33.0032 2.25707 33.5238 0.637871C32.1525 1.45236 30.6518 2.02566 29.0868 2.33287C28.0343 1.20917 26.6404 0.464361 25.1213 0.214082C23.6022 -0.0361959 22.0429 0.222059 20.6856 0.94875C19.3283 1.67544 18.2489 2.82991 17.615 4.23293C16.9811 5.63594 16.8281 7.209 17.1798 8.70787C14.4013 8.56837 11.6832 7.8462 9.20191 6.58823C6.7206 5.33026 4.53154 3.56461 2.77677 1.40587C2.17677 2.44087 1.83177 3.64087 1.83177 4.91887C1.8311 6.06936 2.11442 7.20223 2.65659 8.21697C3.19876 9.2317 3.98302 10.0969 4.93977 10.7359C3.83019 10.7006 2.74508 10.4007 1.77477 9.86137V9.95137C1.77466 11.565 2.33282 13.1289 3.35455 14.3779C4.37627 15.6268 5.79863 16.4838 7.38027 16.8034C6.35095 17.0819 5.27178 17.123 4.22427 16.9234C4.67052 18.3118 5.53977 19.5259 6.71032 20.3958C7.88088 21.2656 9.29415 21.7476 10.7523 21.7744C8.27702 23.7175 5.2201 24.7715 2.07327 24.7669C1.51584 24.767 0.958888 24.7345 0.405273 24.6694C3.59949 26.7231 7.31778 27.8131 11.1153 27.8089C23.9703 27.8089 30.9978 17.1619 30.9978 7.92787C30.9978 7.62787 30.9903 7.32487 30.9768 7.02487C32.3437 6.03633 33.5236 4.81221 34.4613 3.40987L34.4643 3.40537Z" fill="white"/>
</svg>
