<svg width="48" height="36" viewBox="0 0 48 36" fill="none" xmlns="http://www.w3.org/2000/svg">
<g clip-path="url(#clip0_4_41)">
<path d="M40.635 2.98395C37.575 1.60395 34.295 0.583947 30.865 0.00394721C30.8344 -0.00191697 30.8028 0.00186212 30.7744 0.0147619C30.7462 0.0276616 30.7226 0.0490438 30.707 0.0759472C30.287 0.813947 29.819 1.77595 29.491 2.53595C25.8532 1.99242 22.1548 1.99242 18.517 2.53595C18.1516 1.69367 17.7397 0.872397 17.283 0.0759472C17.2675 0.0487126 17.2441 0.0268468 17.2158 0.0132675C17.1876 -0.000311799 17.1559 -0.00495875 17.125 -5.29827e-05C13.697 0.579947 10.417 1.59995 7.35496 2.98195C7.32862 2.99299 7.30628 3.01185 7.29096 3.03595C1.06696 12.1859 -0.639038 21.1099 0.198961 29.9219C0.201294 29.9435 0.207992 29.9643 0.218652 29.9833C0.22931 30.0021 0.243706 30.0187 0.260962 30.0319C3.89374 32.6767 7.94564 34.6915 12.247 35.9919C12.2769 36.0011 12.309 36.0011 12.339 35.9919C12.369 35.9825 12.3954 35.9645 12.415 35.9399C13.339 34.6999 14.163 33.3899 14.867 32.0139C14.909 31.9339 14.869 31.8379 14.785 31.8059C13.493 31.3193 12.2411 30.7323 11.041 30.0499C11.0194 30.0375 11.0012 30.0201 10.9881 29.9991C10.9749 29.9779 10.9672 29.9539 10.9656 29.9293C10.964 29.9045 10.9686 29.8797 10.979 29.8571C10.9893 29.8345 11.0051 29.8149 11.025 29.7999C11.277 29.6139 11.529 29.4199 11.769 29.2259C11.7906 29.2085 11.8166 29.1973 11.8441 29.1939C11.8717 29.1903 11.8997 29.1945 11.925 29.2059C19.779 32.7339 28.285 32.7339 36.047 29.2059C36.0724 29.1937 36.1006 29.1891 36.1286 29.1923C36.1564 29.1955 36.183 29.2063 36.205 29.2239C36.445 29.4199 36.695 29.6139 36.949 29.7999C36.969 29.8145 36.985 29.8339 36.9958 29.8563C37.0064 29.8787 37.0114 29.9033 37.0102 29.9281C37.009 29.9529 37.0016 29.9769 36.989 29.9983C36.9762 30.0195 36.9582 30.0373 36.937 30.0499C35.741 30.7379 34.497 31.3199 33.191 31.8039C33.171 31.8111 33.1526 31.8227 33.1374 31.8375C33.122 31.8525 33.1102 31.8705 33.1024 31.8903C33.0946 31.9103 33.0912 31.9315 33.0924 31.9529C33.0934 31.9741 33.0992 31.9949 33.109 32.0139C33.829 33.3879 34.653 34.6959 35.559 35.9379C35.5778 35.9633 35.604 35.9825 35.6342 35.9925C35.6642 36.0025 35.6966 36.0029 35.727 35.9939C40.0356 34.6971 44.0942 32.6815 47.731 30.0319C47.7488 30.0195 47.7636 30.0035 47.7746 29.9849C47.7856 29.9661 47.7926 29.9455 47.795 29.9239C48.795 19.7359 46.119 10.8839 40.697 3.03995C40.6836 3.01445 40.6616 2.99459 40.635 2.98395ZM16.041 24.5559C13.677 24.5559 11.727 22.4179 11.727 19.7959C11.727 17.1719 13.639 15.0359 16.041 15.0359C18.461 15.0359 20.393 17.1899 20.355 19.7959C20.355 22.4199 18.443 24.5559 16.041 24.5559ZM31.991 24.5559C29.625 24.5559 27.677 22.4179 27.677 19.7959C27.677 17.1719 29.587 15.0359 31.991 15.0359C34.411 15.0359 36.343 17.1899 36.305 19.7959C36.305 22.4199 34.413 24.5559 31.991 24.5559Z" fill="#67B9DB"/>
</g>
<defs>
<clipPath id="clip0_4_41">
<rect width="48" height="36" fill="white"/>
</clipPath>
</defs>
</svg>
