<svg width="36" height="46" viewBox="0 0 36 46" fill="none" xmlns="http://www.w3.org/2000/svg">
<path d="M35.3813 22.3063L18.8813 1.30631C18.7759 1.17356 18.642 1.06633 18.4894 0.992615C18.3368 0.918901 18.1695 0.880615 18 0.880615C17.8305 0.880615 17.6633 0.918901 17.5107 0.992615C17.3581 1.06633 17.2241 1.17356 17.1188 1.30631L0.618767 22.3063C0.463672 22.5043 0.379395 22.7486 0.379395 23.0001C0.379395 23.2516 0.463672 23.4958 0.618767 23.6938L17.1188 44.6938C17.2241 44.8266 17.3581 44.9338 17.5107 45.0075C17.6633 45.0812 17.8305 45.1195 18 45.1195C18.1695 45.1195 18.3368 45.0812 18.4894 45.0075C18.642 44.9338 18.7759 44.8266 18.8813 44.6938L35.3813 23.6938C35.5364 23.4958 35.6206 23.2516 35.6206 23.0001C35.6206 22.7486 35.5364 22.5043 35.3813 22.3063ZM19.125 5.24381L32.7375 22.5688L19.125 28.7563V5.24381ZM16.875 28.7563L3.26252 22.5688L16.875 5.24381V28.7563ZM16.875 31.2313V40.7563L5.23127 25.9251L16.875 31.2313ZM19.125 31.2313L30.7688 25.9251L19.125 40.7563V31.2313Z" fill="#67DBB6" stroke="#67DBB6" stroke-width="0.6"/>
</svg>
