<svg width="72" height="92" viewBox="0 0 72 92" fill="none" xmlns="http://www.w3.org/2000/svg">
<path d="M70.7626 44.6126L37.7626 2.61262C37.5518 2.34712 37.284 2.13266 36.9788 1.98523C36.6736 1.8378 36.339 1.76123 36 1.76123C35.661 1.76123 35.3266 1.8378 35.0214 1.98523C34.7162 2.13266 34.4482 2.34712 34.2376 2.61262L1.23753 44.6126C0.927343 45.0086 0.758789 45.4972 0.758789 46.0002C0.758789 46.5032 0.927343 46.9916 1.23753 47.3876L34.2376 89.3876C34.4482 89.6532 34.7162 89.8676 35.0214 90.015C35.3266 90.1624 35.661 90.239 36 90.239C36.339 90.239 36.6736 90.1624 36.9788 90.015C37.284 89.8676 37.5518 89.6532 37.7626 89.3876L70.7626 47.3876C71.0728 46.9916 71.2412 46.5032 71.2412 46.0002C71.2412 45.4972 71.0728 45.0086 70.7626 44.6126ZM38.25 10.4876L65.475 45.1376L38.25 57.5126V10.4876ZM33.75 57.5126L6.52504 45.1376L33.75 10.4876V57.5126ZM33.75 62.4626V81.5126L10.4625 51.8502L33.75 62.4626ZM38.25 62.4626L61.5376 51.8502L38.25 81.5126V62.4626Z" fill="#67DBB6" stroke="#67DBB6" stroke-width="0.6"/>
</svg>
