<svg width="40" height="40" viewBox="0 0 40 40" fill="none" xmlns="http://www.w3.org/2000/svg">
<path d="M37.8941 12.6099C37.8739 11.0952 37.5903 9.59546 37.0561 8.17792C36.5929 6.98222 35.8851 5.89632 34.9785 4.98958C34.0717 4.08284 32.9859 3.37522 31.7901 2.91192C30.3907 2.38664 28.9125 2.1026 27.4181 2.07192C25.4941 1.98591 24.8841 1.96191 20.0001 1.96191C15.1161 1.96191 14.4901 1.96191 12.5801 2.07192C11.0865 2.10282 9.60884 2.38686 8.21014 2.91192C7.01426 3.3749 5.92818 4.0824 5.0214 4.98918C4.11462 5.89596 3.40712 6.98204 2.94414 8.17792C2.4178 9.57618 2.13438 11.0541 2.10614 12.5479C2.02014 14.4739 1.99414 15.0839 1.99414 19.9679C1.99414 24.8519 1.99414 25.4759 2.10614 27.3879C2.13614 28.8839 2.41814 30.3599 2.94414 31.7619C3.4079 32.9575 4.11594 34.0431 5.02302 34.9495C5.9301 35.8559 7.01626 36.5631 8.21214 37.0259C9.607 37.5723 11.0849 37.8767 12.5821 37.9259C14.5081 38.0119 15.1181 38.0379 20.0021 38.0379C24.8861 38.0379 25.5121 38.0379 27.4221 37.9259C28.9165 37.8965 30.3949 37.6131 31.7941 37.0879C32.9895 36.6241 34.0751 35.9163 34.9819 35.0095C35.8885 34.1029 36.5963 33.0173 37.0601 31.8219C37.5861 30.4219 37.8681 28.9459 37.8981 27.4479C37.9841 25.5239 38.0101 24.9139 38.0101 20.0279C38.0061 15.1439 38.0061 14.5239 37.8941 12.6099ZM19.9881 29.2039C14.8801 29.2039 10.7421 25.0659 10.7421 19.9579C10.7421 14.8499 14.8801 10.7119 19.9881 10.7119C22.4403 10.7119 24.7921 11.686 26.5261 13.42C28.2599 15.154 29.2341 17.5057 29.2341 19.9579C29.2341 22.4101 28.2599 24.7619 26.5261 26.4959C24.7921 28.2297 22.4403 29.2039 19.9881 29.2039ZM29.6021 12.5259C29.3189 12.5262 29.0385 12.4706 28.7767 12.3623C28.5151 12.2541 28.2773 12.0953 28.0771 11.895C27.8767 11.6948 27.7179 11.457 27.6097 11.1953C27.5015 10.9336 27.4459 10.6531 27.4461 10.3699C27.4461 10.0869 27.5019 9.8067 27.6101 9.54524C27.7185 9.28378 27.8771 9.04622 28.0773 8.8461C28.2775 8.646 28.5149 8.48726 28.7765 8.37896C29.0379 8.27066 29.3181 8.21492 29.6011 8.21492C29.8841 8.21492 30.1643 8.27066 30.4259 8.37896C30.6873 8.48726 30.9249 8.646 31.1249 8.8461C31.3251 9.04622 31.4837 9.28378 31.5921 9.54524C31.7003 9.8067 31.7561 10.0869 31.7561 10.3699C31.7561 11.5619 30.7921 12.5259 29.6021 12.5259Z" fill="#67B9DB"/>
<path d="M19.9884 25.9641C23.3054 25.9641 25.9944 23.2751 25.9944 19.9581C25.9944 16.6411 23.3054 13.9521 19.9884 13.9521C16.6714 13.9521 13.9824 16.6411 13.9824 19.9581C13.9824 23.2751 16.6714 25.9641 19.9884 25.9641Z" fill="#67B9DB"/>
</svg>
