<svg width="20" height="20" viewBox="0 0 20 20" fill="none" xmlns="http://www.w3.org/2000/svg">
<path d="M18.947 6.305C18.9369 5.54762 18.7951 4.79777 18.528 4.089C18.2964 3.49115 17.9425 2.9482 17.4892 2.49483C17.0358 2.04146 16.4929 1.68765 15.895 1.456C15.1953 1.19336 14.4562 1.05134 13.709 1.036C12.747 0.992999 12.442 0.980999 10 0.980999C7.55801 0.980999 7.24501 0.980999 6.29001 1.036C5.54317 1.05145 4.80436 1.19347 4.10501 1.456C3.50707 1.68749 2.96403 2.04124 2.51064 2.49463C2.05725 2.94802 1.7035 3.49106 1.47201 4.089C1.20884 4.78813 1.06713 5.52711 1.05301 6.274C1.01001 7.237 0.997009 7.542 0.997009 9.984C0.997009 12.426 0.997009 12.738 1.05301 13.694C1.06801 14.442 1.20901 15.18 1.47201 15.881C1.70389 16.4788 2.05791 17.0216 2.51145 17.4748C2.96499 17.928 3.50807 18.2816 4.10601 18.513C4.80344 18.7862 5.54238 18.9384 6.29101 18.963C7.25401 19.006 7.55901 19.019 10.001 19.019C12.443 19.019 12.756 19.019 13.711 18.963C14.4582 18.9483 15.1974 18.8066 15.897 18.544C16.4947 18.3121 17.0375 17.9582 17.4909 17.5048C17.9442 17.0515 18.2981 16.5087 18.53 15.911C18.793 15.211 18.934 14.473 18.949 13.724C18.992 12.762 19.005 12.457 19.005 10.014C19.003 7.572 19.003 7.262 18.947 6.305V6.305ZM9.99401 14.602C7.44001 14.602 5.37101 12.533 5.37101 9.979C5.37101 7.425 7.44001 5.356 9.99401 5.356C11.2201 5.356 12.396 5.84306 13.263 6.71004C14.1299 7.57703 14.617 8.7529 14.617 9.979C14.617 11.2051 14.1299 12.381 13.263 13.248C12.396 14.1149 11.2201 14.602 9.99401 14.602V14.602ZM14.801 6.263C14.6594 6.26313 14.5192 6.23534 14.3883 6.18121C14.2575 6.12708 14.1386 6.04768 14.0385 5.94755C13.9383 5.84743 13.8589 5.72854 13.8048 5.59769C13.7507 5.46684 13.7229 5.3266 13.723 5.185C13.723 5.0435 13.7509 4.90339 13.805 4.77266C13.8592 4.64193 13.9385 4.52315 14.0386 4.42309C14.1387 4.32304 14.2574 4.24367 14.3882 4.18952C14.5189 4.13537 14.659 4.1075 14.8005 4.1075C14.942 4.1075 15.0821 4.13537 15.2129 4.18952C15.3436 4.24367 15.4624 4.32304 15.5624 4.42309C15.6625 4.52315 15.7418 4.64193 15.796 4.77266C15.8501 4.90339 15.878 5.0435 15.878 5.185C15.878 5.781 15.396 6.263 14.801 6.263Z" fill="#67B9DB"/>
<path d="M9.99421 12.982C11.6527 12.982 12.9972 11.6375 12.9972 9.979C12.9972 8.32049 11.6527 6.976 9.99421 6.976C8.3357 6.976 6.99121 8.32049 6.99121 9.979C6.99121 11.6375 8.3357 12.982 9.99421 12.982Z" fill="#67B9DB"/>
</svg>
