<svg width="40" height="32" viewBox="0 0 40 32" fill="none" xmlns="http://www.w3.org/2000/svg">
<path d="M4.744 6.528C4.7685 6.28454 4.73568 6.0387 4.64816 5.8102C4.56066 5.58168 4.42086 5.37682 4.24 5.212L0.504 0.678V0H12.1L21.064 19.81L28.944 0H40V0.678L36.806 3.76C36.6706 3.8645 36.5662 4.00378 36.5038 4.163C36.4416 4.32222 36.4236 4.49538 36.452 4.664V27.332C36.4236 27.5006 36.4416 27.6738 36.5038 27.833C36.5662 27.9922 36.6706 28.1316 36.806 28.236L39.926 31.32V32H24.238V31.322L27.47 28.162C27.788 27.842 27.788 27.748 27.788 27.26V8.936L18.804 31.924H17.592L7.132 8.936V24.344C7.046 24.99 7.26 25.644 7.712 26.112L11.914 31.248V31.924H0V31.248L4.2 26.112C4.42222 25.8802 4.58716 25.5994 4.6816 25.2924C4.77606 24.9856 4.79742 24.6608 4.744 24.344V6.528Z" fill="#67B9DB"/>
</svg>
