<svg width="82" height="80" viewBox="0 0 82 80" fill="none" xmlns="http://www.w3.org/2000/svg">
<path d="M56.2862 46.857C55.6042 46.857 54.95 47.128 54.4678 47.6102C53.9856 48.0924 53.7148 48.7466 53.7148 49.4286C53.7148 50.1104 53.9856 50.7646 54.4678 51.2468C54.95 51.729 55.6042 52 56.2862 52H64.8576C65.5396 52 66.1936 51.729 66.6758 51.2468C67.158 50.7646 67.429 50.1104 67.429 49.4286C67.429 48.7466 67.158 48.0924 66.6758 47.6102C66.1936 47.128 65.5396 46.857 64.8576 46.857H56.2862ZM2.28614 11.7142C2.28614 9.2136 3.2795 6.8154 5.0477 5.0472C6.8159 3.279 9.2141 2.28564 11.7147 2.28564H58.0004C60.501 2.28564 62.8992 3.279 64.6674 5.0472C66.4356 6.8154 67.429 9.2136 67.429 11.7142V16.0274C70.6834 16.2448 73.7336 17.6911 75.9618 20.0732C78.1898 22.4554 79.4292 25.5954 79.429 28.857V64.857C79.429 68.267 78.0744 71.5372 75.6632 73.9484C73.252 76.3596 69.9818 77.7142 66.5718 77.7142H15.157C11.7471 77.7142 8.4768 76.3596 6.06562 73.9484C3.65444 71.5372 2.29986 68.267 2.29986 64.857V28.857H2.28614V12.5714H2.32386C2.29844 12.2864 2.28586 12.0004 2.28614 11.7142ZM66.5718 21.1428H7.4427V64.857C7.4427 66.903 8.25546 68.8652 9.70216 70.3118C11.1489 71.7586 13.111 72.5714 15.157 72.5714H66.5718C68.6178 72.5714 70.58 71.7586 72.0266 70.3118C73.4734 68.8652 74.2862 66.903 74.2862 64.857V28.857C74.2862 26.8112 73.4734 24.849 72.0266 23.4022C70.58 21.9556 68.6178 21.1428 66.5718 21.1428ZM62.2862 11.7142C62.2862 9.3485 60.3662 7.4285 58.0004 7.4285H11.7147C10.5781 7.4285 9.48798 7.88004 8.68426 8.68376C7.88052 9.48748 7.429 10.5776 7.429 11.7142C7.429 12.8509 7.88052 13.9409 8.68426 14.7447C9.48798 15.5484 10.5781 15.9999 11.7147 15.9999H62.2862V11.7142Z" fill="#67DBB6" stroke="#67DBB6" stroke-width="0.6"/>
</svg>
