<svg width="41" height="40" viewBox="0 0 41 40" fill="none" xmlns="http://www.w3.org/2000/svg">
<path d="M28.1431 23.4285C27.8021 23.4285 27.475 23.564 27.2339 23.8051C26.9928 24.0462 26.8574 24.3733 26.8574 24.7143C26.8574 25.0552 26.9928 25.3823 27.2339 25.6234C27.475 25.8645 27.8021 26 28.1431 26H32.4288C32.7698 26 33.0968 25.8645 33.3379 25.6234C33.579 25.3823 33.7145 25.0552 33.7145 24.7143C33.7145 24.3733 33.579 24.0462 33.3379 23.8051C33.0968 23.564 32.7698 23.4285 32.4288 23.4285H28.1431ZM1.14307 5.85711C1.14307 4.6068 1.63975 3.4077 2.52385 2.5236C3.40795 1.6395 4.60705 1.14282 5.85735 1.14282H29.0002C30.2505 1.14282 31.4496 1.6395 32.3337 2.5236C33.2178 3.4077 33.7145 4.6068 33.7145 5.85711V8.01368C35.3417 8.1224 36.8668 8.84554 37.9809 10.0366C39.0949 11.2277 39.7146 12.7977 39.7145 14.4285V32.4285C39.7145 34.1335 39.0372 35.7686 37.8316 36.9742C36.626 38.1798 34.9909 38.8571 33.2859 38.8571H7.5785C5.87353 38.8571 4.2384 38.1798 3.03281 36.9742C1.82722 35.7686 1.14993 34.1335 1.14993 32.4285V14.4285H1.14307V6.28568H1.16193C1.14922 6.14318 1.14293 6.00018 1.14307 5.85711ZM33.2859 10.5714H3.72135V32.4285C3.72135 33.4515 4.12773 34.4326 4.85108 35.1559C5.57444 35.8793 6.55552 36.2857 7.5785 36.2857H33.2859C34.3089 36.2857 35.29 35.8793 36.0133 35.1559C36.7367 34.4326 37.1431 33.4515 37.1431 32.4285V14.4285C37.1431 13.4056 36.7367 12.4245 36.0133 11.7011C35.29 10.9778 34.3089 10.5714 33.2859 10.5714ZM31.1431 5.85711C31.1431 4.67425 30.1831 3.71425 29.0002 3.71425H5.85735C5.28903 3.71425 4.74399 3.94002 4.34213 4.34188C3.94026 4.74374 3.7145 5.28879 3.7145 5.85711C3.7145 6.42543 3.94026 6.97047 4.34213 7.37234C4.74399 7.7742 5.28903 7.99997 5.85735 7.99997H31.1431V5.85711Z" fill="#67DBB6" stroke="#67DBB6" stroke-width="0.6"/>
</svg>
