<svg width="39" height="39" viewBox="0 0 39 39" fill="none" xmlns="http://www.w3.org/2000/svg">
<path d="M15.0499 30.0811C14.0374 33.1561 11.5999 35.4061 8.01863 36.6061C6.40771 37.1378 4.72705 37.4285 3.03113 37.4686C2.6333 37.4686 2.25177 37.3106 1.97047 37.0293C1.68916 36.748 1.53113 36.3665 1.53113 35.9686C1.57128 34.2727 1.86192 32.592 2.39363 30.9811C3.59363 27.3999 5.84363 24.9624 8.91863 23.9499C9.10917 23.8662 9.31504 23.8231 9.52314 23.8233C9.73124 23.8235 9.93703 23.867 10.1274 23.951C10.3178 24.035 10.4886 24.1578 10.629 24.3114C10.7694 24.465 10.8763 24.6462 10.9429 24.8433C11.0095 25.0405 11.0343 25.2493 11.0158 25.4566C10.9973 25.6639 10.9359 25.8651 10.8354 26.0473C10.735 26.2296 10.5977 26.3889 10.4323 26.5153C10.267 26.6416 10.0771 26.7321 9.87488 26.7811C6.18113 28.0186 5.03738 32.0124 4.68113 34.3186C6.98738 33.9624 10.9811 32.8186 12.2186 29.1249C12.3694 28.7815 12.6433 28.5071 12.9864 28.3557C13.3294 28.2043 13.7168 28.1869 14.072 28.3069C14.4273 28.4269 14.7247 28.6756 14.9057 29.004C15.0867 29.3324 15.1382 29.7167 15.0499 30.0811V30.0811ZM33.7811 15.8124L32.1124 17.4999V28.9936C32.107 29.7879 31.7906 30.5485 31.2311 31.1124L25.1561 37.1686C24.8806 37.4508 24.5509 37.6743 24.1868 37.8257C23.8227 37.9772 23.4317 38.0534 23.0374 38.0499C22.7447 38.0522 22.4536 38.0079 22.1749 37.9186C21.6529 37.7623 21.1834 37.4667 20.8168 37.0637C20.4501 36.6607 20.2001 36.1655 20.0936 35.6311L18.6124 28.2249L10.7749 20.3874L3.36863 18.9061C2.83429 18.7996 2.33903 18.5497 1.93603 18.183C1.53302 17.8163 1.23748 17.3468 1.08113 16.8249C0.923543 16.3067 0.910096 15.7554 1.04223 15.2301C1.17437 14.7049 1.4471 14.2256 1.83113 13.8436L7.88738 7.76864C8.45123 7.20915 9.21182 6.8928 10.0061 6.88739H21.4999L23.1874 5.21864C28.5499 -0.143865 34.0436 0.00613532 36.1624 0.324885C36.7977 0.412792 37.3869 0.705787 37.8405 1.15931C38.294 1.61283 38.587 2.20206 38.6749 2.83739C38.9936 4.95614 39.1436 10.4499 33.7811 15.8124V15.8124ZM3.94988 15.9624L11.0186 17.3686L18.4999 9.88739H10.0061L3.94988 15.9624ZM13.6436 18.9999L19.9999 25.3561L31.6624 13.6936C33.1249 12.2311 36.4624 8.29364 35.7124 3.28739C30.7061 2.53739 26.7686 5.87489 25.3061 7.33739L13.6436 18.9999ZM29.1124 20.4999L21.6311 27.9811L23.0374 35.0499L29.1124 28.9936V20.4999Z" fill="#67DBB6"/>
</svg>
