<svg width="78" height="78" viewBox="0 0 78 78" fill="none" xmlns="http://www.w3.org/2000/svg">
<path d="M30.0998 60.1622C28.0748 66.3122 23.1998 70.8122 16.0373 73.2122C12.8154 74.2756 9.4541 74.857 6.06226 74.9372C5.2666 74.9372 4.50354 74.6212 3.94094 74.0586C3.37832 73.496 3.06226 72.733 3.06226 71.9372C3.14256 68.5454 3.72384 65.184 4.78726 61.9622C7.18726 54.7998 11.6873 49.9248 17.8373 47.8998C18.2183 47.7324 18.6301 47.6462 19.0463 47.6466C19.4625 47.647 19.8741 47.734 20.2548 47.902C20.6356 48.07 20.9772 48.3156 21.258 48.6228C21.5388 48.93 21.7526 49.2924 21.8858 49.6866C22.019 50.081 22.0686 50.4986 22.0316 50.9132C21.9946 51.3278 21.8718 51.7302 21.6708 52.0946C21.47 52.4592 21.1954 52.7778 20.8646 53.0306C20.534 53.2832 20.1542 53.4642 19.7498 53.5622C12.3623 56.0372 10.0748 64.0248 9.36226 68.6372C13.9748 67.9248 21.9622 65.6372 24.4372 58.2498C24.7388 57.563 25.2866 57.0142 25.9728 56.7114C26.6588 56.4086 27.4336 56.3738 28.144 56.6138C28.8546 56.8538 29.4494 57.3512 29.8114 58.008C30.1734 58.6648 30.2764 59.4334 30.0998 60.1622ZM67.5622 31.6248L64.2248 34.9998V57.9872C64.214 59.5758 63.5812 61.097 62.4622 62.2248L50.3122 74.3372C49.7612 74.9016 49.1018 75.3486 48.3736 75.6514C47.6454 75.9544 46.8634 76.1068 46.0748 76.0998C45.4894 76.1044 44.9072 76.0158 44.3498 75.8372C43.3058 75.5246 42.3668 74.9334 41.6336 74.1274C40.9002 73.3214 40.4002 72.331 40.1872 71.2622L37.2248 56.4498L21.5498 40.7748L6.73726 37.8122C5.66858 37.5992 4.67806 37.0994 3.87206 36.366C3.06604 35.6326 2.47496 34.6936 2.16226 33.6498C1.84709 32.6134 1.82019 31.5108 2.08446 30.4602C2.34874 29.4098 2.8942 28.4512 3.66226 27.6872L15.7748 15.5373C16.9025 14.4183 18.4236 13.7856 20.0122 13.7748H42.9998L46.3748 10.4373C57.0998 -0.28773 68.0872 0.012271 72.3248 0.64977C73.5954 0.825584 74.7738 1.41157 75.681 2.31862C76.588 3.22566 77.174 4.40412 77.3498 5.67478C77.9872 9.91228 78.2872 20.8998 67.5622 31.6248ZM7.89976 31.9248L22.0372 34.7372L36.9998 19.7748H20.0122L7.89976 31.9248ZM27.2872 37.9998L39.9998 50.7122L63.3248 27.3872C66.2498 24.4622 72.9248 16.5873 71.4248 6.57478C61.4122 5.07478 53.5372 11.7498 50.6122 14.6748L27.2872 37.9998ZM58.2248 40.9998L43.2622 55.9622L46.0748 70.0998L58.2248 57.9872V40.9998Z" fill="#67DBB6"/>
</svg>
