<svg width="48" height="40" viewBox="0 0 48 40" fill="none" xmlns="http://www.w3.org/2000/svg">
<path d="M47.285 5.87415C45.615 6.61415 43.821 7.11415 41.935 7.34015C43.881 6.17573 45.337 4.34309 46.031 2.18415C44.2028 3.27013 42.2018 4.03455 40.115 4.44415C38.7118 2.94589 36.8532 1.95281 34.8276 1.6191C32.8022 1.2854 30.7232 1.62974 28.9136 2.59865C27.1038 3.56757 25.6646 5.10687 24.8194 6.97755C23.9742 8.84825 23.7702 10.9457 24.239 12.9442C20.5344 12.7582 16.9103 11.7953 13.6019 10.118C10.2935 8.44067 7.37472 6.08647 5.03504 3.20815C4.23504 4.58815 3.77504 6.18815 3.77504 7.89215C3.77416 9.42615 4.15192 10.9366 4.8748 12.2896C5.5977 13.6426 6.64336 14.7962 7.91904 15.6482C6.4396 15.6011 4.9928 15.2013 3.69904 14.4822V14.6022C3.6989 16.7536 4.44312 18.8389 5.80542 20.5042C7.16772 22.1694 9.06418 23.312 11.173 23.7382C9.80062 24.1096 8.36172 24.1644 6.96504 23.8982C7.56004 25.7494 8.71904 27.3682 10.2798 28.528C11.8405 29.6878 13.7249 30.3306 15.669 30.3662C12.3687 32.957 8.29282 34.3624 4.09704 34.3562C3.3538 34.3564 2.6112 34.313 1.87305 34.2262C6.132 36.9646 11.0897 38.4178 16.153 38.4122C33.293 38.4122 42.663 24.2162 42.663 11.9042C42.663 11.5042 42.653 11.1002 42.635 10.7002C44.4576 9.38209 46.0308 7.74995 47.281 5.88015L47.285 5.87415Z" fill="#67B9DB"/>
</svg>
