<svg width="24" height="20" viewBox="0 0 24 20" fill="none" xmlns="http://www.w3.org/2000/svg">
<path d="M23.6425 2.937C22.8075 3.307 21.9105 3.557 20.9675 3.67C21.9405 3.08779 22.6685 2.17147 23.0155 1.092C22.1014 1.63499 21.1009 2.0172 20.0575 2.222C19.3559 1.47287 18.4266 0.976327 17.4138 0.809475C16.4011 0.642623 15.3616 0.814792 14.4568 1.29925C13.5519 1.78371 12.8323 2.55336 12.4097 3.4887C11.9871 4.42405 11.8851 5.47275 12.1195 6.472C10.2672 6.379 8.45515 5.89755 6.80095 5.05891C5.14674 4.22026 3.68736 3.04316 2.51752 1.604C2.11752 2.294 1.88752 3.094 1.88752 3.946C1.88708 4.713 2.07596 5.46824 2.4374 6.14473C2.79885 6.82122 3.32168 7.39804 3.95952 7.824C3.2198 7.80046 2.4964 7.60058 1.84952 7.241V7.301C1.84945 8.37674 2.22156 9.41938 2.90271 10.252C3.58386 11.0846 4.53209 11.6559 5.58652 11.869C4.90031 12.0547 4.18086 12.0821 3.48252 11.949C3.78002 12.8746 4.35952 13.684 5.13989 14.2639C5.92026 14.8438 6.86244 15.1652 7.83452 15.183C6.18436 16.4784 4.14641 17.1811 2.04852 17.178C1.6769 17.1781 1.3056 17.1564 0.936523 17.113C3.066 18.4822 5.54486 19.2088 8.07652 19.206C16.6465 19.206 21.3315 12.108 21.3315 5.952C21.3315 5.752 21.3265 5.55 21.3175 5.35C22.2288 4.69097 23.0154 3.8749 23.6405 2.94L23.6425 2.937Z" fill="#67B9DB"/>
</svg>
